<svg xmlns="http://www.w3.org/2000/svg" viewBox="0 0 297.5 41.2"><defs><style>.cls-1{fill:#ef233c;}</style></defs><g id="Layer_2" data-name="Layer 2"><g id="Laag_1" data-name="Laag 1"><path class="cls-1" d="M49.05,22.79H31.73a.58.58,0,0,0-.58.58v1.68a.58.58,0,0,1-.58.58H20.39a.58.58,0,0,1-.58-.58V23.37a.58.58,0,0,0-.58-.58H1.9a1.16,1.16,0,0,0-.68,2.09L22,40.07a5.85,5.85,0,0,0,6.9,0l20.8-15.19A1.15,1.15,0,0,0,49.05,22.79Z"/><path class="cls-1" d="M50.62,15.15,36.15.68a2.29,2.29,0,0,0-3.26,0L27.11,6.45a2.31,2.31,0,0,1-3.26,0L18.07.68a2.29,2.29,0,0,0-3.26,0L.34,15.15a1.15,1.15,0,0,0,.82,2H19.23a.58.58,0,0,0,.58-.58V14.86a.58.58,0,0,1,.58-.58H30.57a.58.58,0,0,1,.58.58v1.68a.58.58,0,0,0,.58.58H49.8A1.15,1.15,0,0,0,50.62,15.15Z"/><path d="M78.57,18.63a4,4,0,0,0-3.85-2.43,4.08,4.08,0,0,0-4,4.38A4.1,4.1,0,0,0,74.84,25a3.94,3.94,0,0,0,3.73-2.3h5.25a9.26,9.26,0,0,1-18.26-2.11,9.22,9.22,0,0,1,18.23-1.92Z"/><path d="M86.07,29.21V12h4.84v1.83H91c.9-1.83,2.33-2.42,4.32-2.42v5.19c-3.08,0-4.07,1.18-4.07,3.13v9.5Z"/><path d="M99.56,35l2.73-6.62L95.9,12h5.49l3.45,10h.06l3.29-10h5.47L105,35Z"/><path d="M115.11,35V12H120v1.9h.1a6.62,6.62,0,0,1,5.4-2.49c4.9,0,8.38,4,8.38,9.38,0,4.9-3.44,9-8.38,9a6.71,6.71,0,0,1-5.19-2.14V35Zm13.57-14.35A4.32,4.32,0,1,0,124.36,25,4.33,4.33,0,0,0,128.68,20.61Z"/><path d="M136.33,29.21v-23h5.15V12H144v3.91h-2.48V29.21Z"/><path d="M153.92,29.74a9,9,0,0,1-9.28-9.16,9.29,9.29,0,0,1,18.57-.06A9,9,0,0,1,153.92,29.74Zm4.13-9.16a4.14,4.14,0,1,0-8.26,0,4.14,4.14,0,1,0,8.26,0Z"/><path d="M165.64,29.21v-23h5.15v7.11a6.43,6.43,0,0,1,4.91-2c4.47,0,8.57,3.36,8.57,9.1,0,5.31-3.39,9.31-8.7,9.31-2.08,0-4.16-1-4.93-2.42h-.07v1.83Zm13.47-8.63a4.25,4.25,0,1,0-8.5,0A4.21,4.21,0,0,0,174.8,25,4.3,4.3,0,0,0,179.11,20.58Z"/><path d="M190.84,22.17a3.87,3.87,0,0,0,4,3.26A3.63,3.63,0,0,0,198,23.81h5.27c-1.64,3.76-4.78,6-8.41,6a9.19,9.19,0,1,1,9-9,6.85,6.85,0,0,1-.12,1.37Zm7.89-3.48a3.86,3.86,0,0,0-3.94-3,3.81,3.81,0,0,0-3.88,3Z"/><path d="M219.17,29.21V27.35h-.07c-.74,1.52-2.79,2.45-5.06,2.45-5.09,0-8.63-4-8.63-9.22s3.7-9.19,8.63-9.19a5.84,5.84,0,0,1,5.06,2.42h.07V12h5.15V29.21Zm0-8.63a4.38,4.38,0,0,0-4.38-4.38,4.4,4.4,0,1,0,4.38,4.38Z"/><path d="M238.75,29.21V27.38h-.06c-.74,1.59-2.11,2.39-4.44,2.39-3.63,0-6.64-2.17-6.64-7.08V12h5.15v9.66c0,2.26.81,3.32,2.76,3.32s2.95-1.3,2.95-3.41V12h5.16V29.21Z"/><path d="M247,29.21v-23h5.16V12h2.48v3.91h-2.48V29.21Z"/><path d="M256.61,10.15V6.24h5.15v3.91Zm0,19.06V12h5.15V29.21Z"/><path d="M269.21,22.17a3.87,3.87,0,0,0,4,3.26,3.63,3.63,0,0,0,3.14-1.62h5.28c-1.65,3.76-4.79,6-8.42,6a9.19,9.19,0,1,1,9-9,6.85,6.85,0,0,1-.13,1.37Zm7.89-3.48a3.86,3.86,0,0,0-3.94-3,3.81,3.81,0,0,0-3.88,3Z"/><path d="M291.91,16.83c0-1-.74-1.31-1.58-1.31s-1.49.5-1.49,1.15c0,.93.84,1.4,3.23,2,4.1,1.09,5.43,2.73,5.43,5.25,0,3.6-3.1,5.86-7,5.86s-6.64-2.2-7-5.71h5.12a1.77,1.77,0,0,0,2,1.58c.9,0,1.8-.52,1.8-1.33,0-1-.59-1.46-3.17-2.27-4.35-1.33-5.5-3-5.5-5.06,0-3.41,3.2-5.62,6.68-5.62,3.73,0,6.36,2,6.61,5.44Z"/></g></g></svg>