<svg width="44" height="44" viewBox="0 0 44 44"  xmlns="http://www.w3.org/2000/svg">
<path d="M9.07926 20.7925C9.07921 20.5487 9.12736 20.3072 9.22092 20.0819C9.31448 19.8567 9.45162 19.6522 9.62446 19.4801C9.79729 19.3081 10.0024 19.1719 10.2281 19.0793C10.4537 18.9868 10.6954 18.9397 10.9393 18.9408L14.023 18.9509C14.5147 18.9509 14.9863 19.1463 15.3339 19.4939C15.6816 19.8416 15.8769 20.3132 15.8769 20.8049V32.4656C16.2243 32.3627 16.6698 32.2529 17.1579 32.1384C17.4968 32.0587 17.7988 31.8668 18.015 31.5939C18.2311 31.321 18.3488 30.9831 18.3489 30.635V16.1709C18.3489 15.9274 18.3968 15.6863 18.49 15.4613C18.5831 15.2363 18.7197 15.0319 18.8919 14.8597C19.064 14.6875 19.2684 14.5509 19.4934 14.4577C19.7184 14.3645 19.9595 14.3165 20.203 14.3165H23.2928C23.7845 14.3166 24.256 14.5119 24.6036 14.8596C24.9513 15.2073 25.1466 15.6788 25.1467 16.1704V29.5955C25.1467 29.5955 25.92 29.2824 26.6738 28.9643C26.9537 28.8459 27.1926 28.6477 27.3606 28.3944C27.5286 28.1411 27.6183 27.844 27.6185 27.5401V11.5352C27.6185 11.2918 27.6665 11.0507 27.7596 10.8258C27.8528 10.6009 27.9893 10.3965 28.1614 10.2243C28.3336 10.0522 28.5379 9.9156 28.7629 9.82243C28.9878 9.72926 29.2289 9.68131 29.4723 9.68131H32.5621C33.0538 9.68131 33.5254 9.87663 33.8731 10.2243C34.2208 10.572 34.4162 11.0435 34.4162 11.5352V24.7144C37.095 22.773 39.81 20.4379 41.9644 17.6301C42.277 17.2226 42.4839 16.744 42.5665 16.237C42.6491 15.7301 42.605 15.2106 42.4381 14.7248C40.9803 10.4765 38.2459 6.78206 34.6088 4.14674C30.9716 1.51143 26.6093 0.0638671 22.1182 0.00197956C10.0076 -0.160706 -0.00108486 9.72518 0.00010479 21.8372C-0.0117863 25.6698 0.988523 29.4377 2.89989 32.7597C3.16348 33.2141 3.55127 33.5838 4.0177 33.8254C4.48413 34.0671 5.00983 34.1706 5.53304 34.1238C6.11761 34.0723 6.84538 33.9996 7.71056 33.8981C8.08713 33.8552 8.43479 33.6754 8.68732 33.3927C8.93985 33.1101 9.07961 32.7445 9.07999 32.3655V20.7925" fill="inherit"/>
<path d="M9.01187 39.4937C12.2688 41.8631 16.1178 43.2853 20.1328 43.603C24.1479 43.9207 28.1726 43.1214 31.7616 41.2938C35.3507 39.4661 38.3642 36.6811 40.4687 33.2471C42.5732 29.8131 43.6868 25.8638 43.6861 21.8361C43.6861 21.3334 43.6628 20.8362 43.6292 20.3418C35.6522 32.2383 20.9237 37.8 9.01172 39.4942" fill="inherit"/>
</svg>
