<svg width="48" height="43" viewBox="0 0 48 43" xmlns="http://www.w3.org/2000/svg">
<path d="M48 27.4842V29.9806C48 30.1239 47.912 30.2513 47.784 30.307C47 30.6415 44.316 31.8677 43.2 33.4126C40.352 37.3582 38.176 43 33.312 43H13.02C5.82803 43 0 37.1791 0 29.9965V29.7656C0 29.5744 0.155965 29.4192 0.347982 29.4192H11.66C11.884 29.4192 12.048 29.6262 12.028 29.8452C11.948 30.5777 12.084 31.3263 12.432 32.0071C13.104 33.3648 14.496 34.2129 16 34.2129H21.6V29.8611H16.064C15.78 29.8611 15.612 29.5346 15.776 29.3037C15.836 29.2121 15.904 29.1166 15.976 29.0091C16.5 28.2685 17.248 27.1179 17.992 25.808C18.5 24.9241 18.992 23.9805 19.388 23.0329C19.468 22.8617 19.532 22.6865 19.596 22.5152C19.704 22.2127 19.816 21.93 19.896 21.6473C19.976 21.4084 20.04 21.1576 20.104 20.9227C20.292 20.1184 20.372 19.2664 20.372 18.3825C20.372 18.0361 20.356 17.6738 20.324 17.3274C20.308 16.9492 20.26 16.5709 20.212 16.1927C20.18 15.8582 20.12 15.5277 20.056 15.1814C19.976 14.6757 19.864 14.1741 19.736 13.6684L19.692 13.4773C19.596 13.1309 19.516 12.8005 19.404 12.4541C19.088 11.3671 18.724 10.3081 18.34 9.31669C18.2 8.9225 18.04 8.54427 17.88 8.16605C17.644 7.59669 17.404 7.07911 17.184 6.58935C17.072 6.36637 16.976 6.16331 16.88 5.95629C16.772 5.72137 16.66 5.48645 16.548 5.26355C16.468 5.09234 16.376 4.93306 16.312 4.77379L15.628 3.51564C15.532 3.34444 15.692 3.14137 15.88 3.19315L20.16 4.34774H20.172C20.18 4.34774 20.184 4.35177 20.188 4.35177L20.752 4.50702L21.372 4.68226L21.6 4.74589V2.21371C21.6 0.991371 22.584 0 23.8 0C24.408 0 24.96 0.246854 25.356 0.648952C25.752 1.05113 26 1.60056 26 2.21371V5.97226L26.456 6.0996C26.492 6.11161 26.528 6.1275 26.56 6.15137C26.672 6.235 26.832 6.35839 27.036 6.50976C27.196 6.6371 27.368 6.79242 27.576 6.95169C27.988 7.2821 28.48 7.70814 29.02 8.1979C29.164 8.32129 29.304 8.44871 29.432 8.57613C30.1281 9.22113 30.908 9.97758 31.652 10.8137C31.86 11.0486 32.064 11.2875 32.272 11.5383C32.48 11.7931 32.7 12.044 32.892 12.2948C33.144 12.6293 33.416 12.9756 33.652 13.338C33.764 13.5092 33.892 13.6844 34 13.8556C34.304 14.3134 34.572 14.7873 34.828 15.261C34.936 15.48 35.048 15.7189 35.144 15.9538C35.428 16.5869 35.652 17.2319 35.796 17.8769C35.84 18.0162 35.872 18.1675 35.888 18.3029V18.3348C35.936 18.5258 35.952 18.7289 35.968 18.9359C36.032 19.5969 36 20.2577 35.856 20.9227C35.796 21.2054 35.716 21.4721 35.62 21.7548C35.524 22.0256 35.428 22.3082 35.304 22.575C35.0641 23.1284 34.78 23.6819 34.444 24.1994C34.336 24.3906 34.208 24.5936 34.08 24.7848C33.94 24.9877 33.796 25.1789 33.668 25.366C33.492 25.6049 33.304 25.8557 33.112 26.0787C32.94 26.3136 32.764 26.5485 32.572 26.7556C32.304 27.0701 32.048 27.3687 31.78 27.6554C31.62 27.8425 31.448 28.0336 31.272 28.2048C31.1001 28.3959 30.924 28.5671 30.764 28.7264C30.496 28.9931 30.272 29.2002 30.084 29.3714L29.644 29.7735C29.58 29.8293 29.496 29.8611 29.408 29.8611H26V34.2129H30.288C31.248 34.2129 32.16 33.8744 32.896 33.2533C33.148 33.0344 34.248 32.0868 35.548 30.6574C35.592 30.6096 35.648 30.5738 35.7121 30.5579L47.556 27.1498C47.7761 27.086 48 27.2532 48 27.4842Z" fill="inherit"/>
</svg>
